<?xml version="1.0" encoding="utf-8"?>
<!-- Generator: Adobe Illustrator 26.5.0, SVG Export Plug-In . SVG Version: 6.00 Build 0)  -->
<svg version="1.1" id="Layer_1" xmlns="http://www.w3.org/2000/svg" xmlns:xlink="http://www.w3.org/1999/xlink" x="0px" y="0px"
	 viewBox="0 0 100 100" style="enable-background:new 0 0 100 100;" xml:space="preserve">
<style type="text/css">
	.st0{fill:#666666;}
</style>
<path class="st0" d="M71.8,3.6H28.2c0,0-6.9,19-2.7,28.7C30.5,44,45.5,45.7,47.6,52.3c1.3,4.1,1,16,1,18.3c0,2.3,0.4,11.5,0,14.4
	c-0.4,2.9-0.4,5.2-4.5,7c-4.1,1.8-9.9,2.5-11.7,2.6c-1.8,0.1-1.5,1.9,0.1,1.9c1.4,0,33.6,0,35,0c1.6,0,1.9-1.8,0.1-1.9
	c-1.8-0.1-7.6-0.8-11.7-2.6c-4.1-1.8-4.2-4-4.5-7c-0.4-2.9,0-12.2,0-14.4c0-2.3-0.3-14.2,1-18.3c2.1-6.6,17.1-8.2,22.2-19.9
	C78.7,22.7,71.8,3.6,71.8,3.6z"/>
</svg>
