<?xml version="1.0" encoding="utf-8"?>
<!-- Generator: Adobe Illustrator 26.5.0, SVG Export Plug-In . SVG Version: 6.00 Build 0)  -->
<svg version="1.1" id="Layer_1" xmlns="http://www.w3.org/2000/svg" xmlns:xlink="http://www.w3.org/1999/xlink" x="0px" y="0px"
	 viewBox="0 0 100 100" style="enable-background:new 0 0 100 100;" xml:space="preserve">
<style type="text/css">
	.st0{fill:#666666;}
</style>
<path class="st0" d="M85.2,29.6c0-5.3-0.6-8.1-3.6-11.9c-3-3.8-6.4-4.1-11.8-4.1c-1.8,0-3.3-0.2-4.5-0.6c-1.6-0.5-2.7-2.1-2.7-3.7
	l0-3.8c0-0.9-0.7-1.6-1.6-1.6h-45c-0.9,0-1.6,0.7-1.6,1.6l1.5,86.2c0,2.5,2.1,4.5,4.6,4.5h36.8c2.5,0,4.6-2,4.6-4.5l0.1-8
	c0-1.4,1-2.6,2.3-2.9c1.1-0.3,2.4-0.4,3.8-0.4c4.5,0,8.1,0.4,11.9-2.6c3.8-3,3.9-10.1,4.8-20.2C85.8,47.5,85.2,34.9,85.2,29.6z
	 M76.1,67.2c-1.7,4.5-4.8,4.2-6.9,4.2c-0.6,0-1.5,0-2.5,0c-2.5-0.2-4.5-2.4-4.4-4.9l0.3-40c0-1.8,1-3.4,2.6-4.1
	c1.5-0.7,3.1-1.1,5.1-0.9c4.1,0.3,6.2,1.2,6.7,4.5C78.9,37.7,77.8,62.7,76.1,67.2z"/>
</svg>
