<?xml version="1.0" encoding="utf-8"?>
<!-- Generator: Adobe Illustrator 26.5.0, SVG Export Plug-In . SVG Version: 6.00 Build 0)  -->
<svg version="1.1" id="Layer_1" xmlns="http://www.w3.org/2000/svg" xmlns:xlink="http://www.w3.org/1999/xlink" x="0px" y="0px"
	 viewBox="0 0 100 100" style="enable-background:new 0 0 100 100;" xml:space="preserve">
<style type="text/css">
	.st0{fill:#666666;}
</style>
<path class="st0" d="M55.1,79.2c0.5-0.5,0.5-2.6,0.5-2.6s2.5-0.1,8.7-1.4c7.3-1.5,12.3-5.1,16-13.3c3.5-7.6,2.9-17.2,0-28.4
	C77.7,23,71.4,10,69.5,6.2c-0.3-0.7-1.1-1.1-1.8-1.1H32.3c-0.8,0-1.5,0.4-1.8,1.1C28.6,10,22.3,23,19.6,33.5
	c-2.9,11.2-3.5,20.8,0,28.4c3.7,8.1,8.7,11.7,16,13.3c6.2,1.3,8.7,1.4,8.7,1.4s0,2.1,0.5,2.6c0.5,0.5,0.2,1.7,0.7,2.6
	c0.5,0.9,0.9,3,0.2,3.1c-0.7,0.2-4,1.7-4.5,2.4c-0.5,0.7-1,1-3.1,1.4c-2.1,0.3-14,1.7-15,2.8c-1,1-0.3,3.3,1.2,3.3
	c1.5,0,50,0,51.5,0c1.6,0,2.3-2.3,1.2-3.3c-1-1-12.9-2.4-15-2.8c-2.1-0.3-2.6-0.7-3.1-1.4c-0.5-0.7-3.8-2.3-4.5-2.4
	c-0.7-0.2-0.3-2.3,0.2-3.1C55,80.9,54.6,79.7,55.1,79.2z"/>
</svg>
