<?xml version="1.0" encoding="utf-8"?>
<!-- Generator: Adobe Illustrator 26.5.0, SVG Export Plug-In . SVG Version: 6.00 Build 0)  -->
<svg version="1.1" id="Layer_1" xmlns="http://www.w3.org/2000/svg" xmlns:xlink="http://www.w3.org/1999/xlink" x="0px" y="0px"
	 viewBox="0 0 100 100" style="enable-background:new 0 0 100 100;" xml:space="preserve">
<style type="text/css">
	.st0{fill:#666666;}
</style>
<path class="st0" d="M57.3,93.1c-2.7-0.7-3.7-2-4.8-5.1c-1.1-3.1-1.1-7.3-1.3-12.1c-0.1-4.8,0.6-16.9,1-19.7c0.4-2.8,3-6.6,4.9-10.1
	c2-3.5,3.9-11.1,4.4-21.3c0.4-8.5-0.8-17.9-1.1-20.7c-0.1-0.5-0.5-0.9-1-0.9H40.6c-0.5,0-0.9,0.4-1,0.9c-0.4,2.8-1.5,12.2-1.1,20.7
	c0.4,10.1,2.4,17.8,4.4,21.3c2,3.5,4.5,7.3,4.9,10.1c0.4,2.8,1.1,14.9,1,19.7c-0.1,4.8-0.1,9-1.3,12.1c-1.1,3.1-2.1,4.4-4.8,5.1
	c-2.7,0.7-6.2,0.8-6.2,2.1c0,1.3,1,1.7,1.7,1.7c0.7,0,23,0,23.7,0s1.7-0.4,1.7-1.7C63.5,93.9,60,93.8,57.3,93.1z"/>
</svg>
