<?xml version="1.0" encoding="utf-8"?>
<!-- Generator: Adobe Illustrator 26.5.0, SVG Export Plug-In . SVG Version: 6.00 Build 0)  -->
<svg version="1.1" id="Layer_1" xmlns="http://www.w3.org/2000/svg" xmlns:xlink="http://www.w3.org/1999/xlink" x="0px" y="0px"
	 viewBox="0 0 100 100" style="enable-background:new 0 0 100 100;" xml:space="preserve">
<style type="text/css">
	.st0{fill:#666666;}
</style>
<path class="st0" d="M65.2,92.6c-4.4-1.1-9.7-3.1-11.3-6.6C52.3,82.6,52,72.9,52,63.5c0-9.4,0.9-19,2.6-23.3
	c1.7-4.3,9.1-13.8,12.4-18.3c2.6-3.5,10.3-13.3,13.3-17.1c0.5-0.6,0-1.5-0.7-1.5H20.5c-0.8,0-1.2,0.9-0.7,1.5
	C22.7,8.6,30.4,18.4,33,21.9c3.3,4.4,10.7,14,12.4,18.3C47.1,44.5,48,54,48,63.5c0,9.4-0.3,19.1-1.9,22.5c-1.6,3.4-6.8,5.4-11.3,6.6
	c-4.4,1.1-4.6,1-4.6,2.7c0,1.7,4,1.3,6.8,1.3c2.7,0,23,0,25.7,0c2.9,0,6.8,0.4,6.8-1.3C69.7,93.6,69.6,93.7,65.2,92.6z"/>
</svg>
