<?xml version="1.0" encoding="utf-8"?>
<!-- Generator: Adobe Illustrator 26.5.0, SVG Export Plug-In . SVG Version: 6.00 Build 0)  -->
<svg version="1.1" id="Layer_1" xmlns="http://www.w3.org/2000/svg" xmlns:xlink="http://www.w3.org/1999/xlink" x="0px" y="0px"
	 viewBox="0 0 100 100" style="enable-background:new 0 0 100 100;" xml:space="preserve">
<style type="text/css">
	.st0{fill:#666666;}
</style>
<path class="st0" d="M77.6,23.2h-9.9c-0.3-5.8-0.6-9.3-0.6-9.3H5.5c0,0-1.3,14.4-1.3,33.5c0,19.1,0.8,30.1,1.5,31.6
	c0.6,1.5,1.7,2.8,3.4,3.4c0.2,2.3,1.3,3.6,4.2,3.6c2,0,44,0,46,0c3,0,4-1.3,4.2-3.6c1.7-0.6,2.8-1.9,3.4-3.4
	c0.2-0.4,0.3-1.4,0.5-3.1h10.2c10,0,18.1-8.1,18.1-18.1V41.4C95.8,31.3,87.7,23.2,77.6,23.2z M88.6,56.3c0,6.7-5.4,12.2-12.2,12.2
	c-1.9,0-3.5-0.6-4.9-1.6c-2.2-1.6-3.3-4.3-3.3-7c0.1-3.6,0.1-7.8,0.1-12.4c0-2.6,0-5-0.1-7.4c-0.1-3.3,1.7-6.4,4.6-7.8
	c1.6-0.8,3.3-1.2,5.2-1.2h0c5.8,0,10.4,4.7,10.4,10.4V56.3z"/>
</svg>
