<?xml version="1.0" encoding="utf-8"?>
<!-- Generator: Adobe Illustrator 26.5.0, SVG Export Plug-In . SVG Version: 6.00 Build 0)  -->
<svg version="1.1" id="Layer_1" xmlns="http://www.w3.org/2000/svg" xmlns:xlink="http://www.w3.org/1999/xlink" x="0px" y="0px"
	 viewBox="0 0 100 100" style="enable-background:new 0 0 100 100;" xml:space="preserve">
<style type="text/css">
	.st0{fill:none;}
	.st1{fill:#666666;}
</style>
<g>
	<path class="st0" d="M26.5,29.7l-4.3-0.1c0,0-2.8,2-3.5,2c-0.8,0-4.3-0.9-8-3.8c-3.1,3.4-5.5,28.7,1,42.1c0.6,0.6,2.8-2.3,4.5-3.3
		c1.8-1,3.2-1.6,3.6-1.4c0.4,0.3,3.9,1.5,3.9,1.5l4-1C26.1,59.4,25,52,25,44C25,38.5,25.7,33.7,26.5,29.7z"/>
	<path class="st1" d="M90,17.5h0.6c1,0,1.8-0.8,1.8-1.8c0-1-0.8-1.8-1.8-1.8H30c-1,0-1.8,0.8-1.8,1.8c0,1,0.8,1.8,1.8,1.8h0.6
		c0,0-1.1,2-2.3,5.5c-0.1-0.5-0.4-0.8-1-0.8c-0.8,0-3.3,0.1-3.8,0.3c-0.5,0.3-5.6,5-6.3,5c-0.8,0-7.9-7-8.3-6.9s-3.3,7.1-4.1,14.8
		C4.2,43,4.2,51.1,4.7,57.8S8.8,75,10.3,77.4c1.5,2.4,2-0.8,2.8-1.4s4.8-6.1,5.3-6c0.4,0.1,6.9,3.4,7.9,3.8c0.5,0.2,2.4,0,3.8-0.3
		c1.4,3.9,3,7.3,4.6,10.1c0.9,1.5,2.5,2.5,4.2,2.5h42.9c1.8,0,3.4-0.9,4.2-2.5c4.8-8.4,9.6-22.6,9.6-39.5C95.7,27.9,90,17.5,90,17.5
		z M23.8,66.9c0,0-3.5-1.3-3.9-1.5c-0.4-0.3-1.8,0.4-3.6,1.4c-1.8,1-3.9,3.9-4.5,3.3c-6.5-13.4-4.1-38.7-1-42.1
		c3.8,2.9,7.3,3.8,8,3.8c0.8,0,3.5-2,3.5-2l4.3,0.1c-0.9,4-1.5,8.8-1.5,14.3c0,8,1.1,15.3,2.7,21.8L23.8,66.9z"/>
</g>
</svg>
