<?xml version="1.0" encoding="utf-8"?>
<!-- Generator: Adobe Illustrator 26.5.0, SVG Export Plug-In . SVG Version: 6.00 Build 0)  -->
<svg version="1.1" id="Layer_1" xmlns="http://www.w3.org/2000/svg" xmlns:xlink="http://www.w3.org/1999/xlink" x="0px" y="0px"
	 viewBox="0 0 100 100" style="enable-background:new 0 0 100 100;" xml:space="preserve">
<style type="text/css">
	.st0{fill:#666666;}
</style>
<path class="st0" d="M66,92.2c-1.5-0.5-5.1-2.8-8.8-6.1c-3.7-3.3-3.3-13.9-2.6-18.2c0.7-4.3,4.1-7.6,5.2-9.1
	c1.1-1.5,1.1-5.4,1.3-11.1c0.2-5.6,1.1-26.3,2-31.9c0.6-4,2.9-8.2,4.1-10.3c0.4-0.6-0.1-1.4-0.8-1.4H33.6c-0.7,0-1.1,0.8-0.8,1.4
	c1.3,2.1,3.5,6.3,4.1,10.3c0.9,5.6,1.7,26.3,2,31.9c0.2,5.6,0.2,9.5,1.3,11.1c1.1,1.5,4.6,4.8,5.2,9.1c0.7,4.3,1.1,15-2.6,18.2
	c-3.7,3.3-7.3,5.5-8.8,6.1c-1.5,0.5-1.7,3.6,0.1,3.6c1.6,0,30.1,0,31.7,0C67.7,95.8,67.5,92.8,66,92.2z"/>
</svg>
