<?xml version="1.0" encoding="utf-8"?>
<!-- Generator: Adobe Illustrator 26.5.0, SVG Export Plug-In . SVG Version: 6.00 Build 0)  -->
<svg version="1.1" id="Layer_1" xmlns="http://www.w3.org/2000/svg" xmlns:xlink="http://www.w3.org/1999/xlink" x="0px" y="0px"
	 viewBox="0 0 100 100" style="enable-background:new 0 0 100 100;" xml:space="preserve">
<style type="text/css">
	.st0{fill:#666666;}
</style>
<path class="st0" d="M81.1,3.3H18.9c0,0-1.7,5.4-0.6,10.2c1.1,4.9,2.8,10,10.7,16.3c7.9,6.3,13.3,9.3,15.4,19.9
	c2.1,10.6,2.6,16.7,2.7,26.8c0.1,10.1,0.1,13-1.8,14c-2,1-5.6,2.1-9.1,2.6s-8,0.7-8,2.2s2.4,1.4,3.3,1.4c0.9,0,36.5,0,37.3,0
	c0.9,0,3.3,0,3.3-1.4s-4.5-1.7-8-2.2c-3.5-0.5-7.2-1.6-9.1-2.6c-2-1-2-3.9-1.8-14s0.6-16.2,2.7-26.8C57.7,39.1,63,36.2,71,29.8
	c7.9-6.3,9.6-11.5,10.7-16.3C82.8,8.6,81.1,3.3,81.1,3.3z"/>
</svg>
