<?xml version="1.0" encoding="utf-8"?>
<!-- Generator: Adobe Illustrator 26.5.0, SVG Export Plug-In . SVG Version: 6.00 Build 0)  -->
<svg version="1.1" id="Layer_1" xmlns="http://www.w3.org/2000/svg" xmlns:xlink="http://www.w3.org/1999/xlink" x="0px" y="0px"
	 viewBox="0 0 200 140" style="enable-background:new 0 0 200 140;" xml:space="preserve">
<style type="text/css">
	.st0{fill:#FFFFFF;}
	.st1{fill:#CFA980;}
	.st2{fill:#2F2F2F;}
	.st3{fill:#FFE500;}
</style>
<g>
	<path class="st0" d="M101.4,135.3c-24,0-46.6-4.8-63.5-13.6C18.2,111.6,7.4,96.9,7.4,80.5c0-9.7,3.9-19,11.3-27L8.3,43.1
		c-5.1-5.1-5.1-13.3,0-18.3l2.9-2.9C22.7,10.4,38,4,54.4,4C70.7,4,86,10.4,97.6,21.9c1.2,1.2,2.3,2.4,3.4,3.7c0.1,0,0.3,0,0.4,0
		c24,0,46.6,4.8,63.5,13.6c19.7,10.2,30.5,24.8,30.5,41.3c0,16.5-10.8,31.1-30.5,41.3C148,130.5,125.4,135.3,101.4,135.3z"/>
	<path d="M101.4,38.5c-1.7,0-3.4,0-5,0.1c-0.6,0-1.1,0.1-1.6,0.4c-1.8-2.8-3.9-5.5-6.4-7.9c-18.8-18.8-49.3-18.8-68.1,0l-2.9,2.9
		l20.3,20.3c-11.2,7.3-17.5,16.4-17.5,26.2c0,23.5,35.6,41.9,81,41.9c45.4,0,81-18.4,81-41.9C182.4,56.9,146.8,38.5,101.4,38.5z"/>
	<path class="st1" d="M159.8,100.4c-13.4-8.8-34.5-13.9-56.8-13.9c-1.9,0-3.8,0-5.6,0.1c-2.3,4.5-5.3,8.8-9,12.5l-2.9,2.9L73.3,89.7
		c-11.3,2.6-21.2,6.6-28.5,11.8c13.5,7.7,34.1,12.8,56.6,12.8C125,114.3,146.4,108.8,159.8,100.4z"/>
	<path class="st2" d="M101.4,38.5c-1.7,0-3.4,0-5,0.1c-0.6,0-1.1,0.1-1.6,0.4c-1.8-2.8-3.9-5.5-6.4-7.9c-18.8-18.8-49.3-18.8-68.1,0
		l-2.9,2.9l20.3,20.3c-11.2,7.3-17.5,16.4-17.5,26.2c0,23.5,35.6,41.9,81,41.9c45.4,0,81-18.4,81-41.9
		C182.4,56.9,146.8,38.5,101.4,38.5z M28.5,80.5c0-10.7,12.2-21.3,31.7-27.7c2.1-0.7,3.3-3,2.6-5.1c-0.7-2.1-3-3.3-5.1-2.6
		c-4.6,1.5-8.8,3.2-12.6,5.1c-0.1-0.2-0.3-0.4-0.4-0.5L29.1,34.1C44.8,21.2,68,22.1,82.7,36.8c14.6,14.6,15.5,37.9,2.7,53.6
		L63.7,68.6c-1.6-1.6-4.1-1.6-5.7,0c-1.6,1.6-1.6,4.1,0,5.7l8.7,8.7c-10.9,3-20.4,7.3-27.6,12.6c-0.4,0.3-0.8,0.7-1.1,1.2
		C31.9,91.9,28.5,86.3,28.5,80.5z M101.4,114.3c-22.6,0-43.1-5.1-56.6-12.8c7.3-5.2,17.2-9.2,28.5-11.8L85.5,102l2.9-2.9
		c3.8-3.8,6.8-8,9-12.5c1.9-0.1,3.7-0.1,5.6-0.1c22.3,0,43.4,5.2,56.8,13.9C146.4,108.8,125,114.3,101.4,114.3z M166.5,95.4
		c-0.3-0.3-0.6-0.7-0.9-0.9c-14.8-10.3-37.6-16.1-62.5-16.1c-0.8,0-1.6,0-2.4,0c3-10.4,2.4-21.6-1.8-31.7c0.9,0,1.7,0,2.6,0
		c39.5,0,72.9,15.5,72.9,33.8C174.3,85.8,171.5,90.9,166.5,95.4z"/>
	<path class="st3" d="M63.7,68.6l21.7,21.7c12.8-15.7,11.9-38.9-2.7-53.6C68,22.1,44.8,21.2,29.1,34.1l15.5,15.5
		c0.2,0.2,0.3,0.3,0.4,0.5c3.8-1.9,8-3.6,12.6-5.1c2.1-0.7,4.4,0.5,5.1,2.6c0.7,2.1-0.5,4.4-2.6,5.1c0,0,0,0,0,0v14.8
		C61.4,67.3,62.7,67.7,63.7,68.6z"/>
	<path class="st0" d="M57.9,74.4l8.7,8.7c-10.9,3-20.4,7.3-27.6,12.6c-0.4,0.3-0.8,0.7-1.1,1.2c-6-4.9-9.4-10.5-9.4-16.4
		c0-10.7,12.2-21.3,31.7-27.7c0,0,0,0,0,0v14.8c0,0,0,0,0,0c-0.8,0.1-1.6,0.5-2.2,1.1C56.3,70.2,56.3,72.8,57.9,74.4z M79.9,38.8
		c6.8,6.6,10.8,16.1,10.8,26.2c0,8.8-2.8,16.9-7.9,22.8l2.6,2.6c12.8-15.7,11.9-38.9-2.7-53.6C68,22.1,44.8,21.2,29.1,34.1l2.5,2.5
		c6.6-5.1,14.5-8,22.7-8.1C63.8,28.4,72.9,32,79.9,38.8z M101.4,46.6c-0.8,0-1.7,0-2.6,0c4.2,10.1,4.8,21.3,1.8,31.7
		c0.8,0,1.6,0,2.4,0c24.9,0,47.7,5.9,62.5,16.1c0.4,0.3,0.7,0.6,0.9,0.9c5-4.5,7.8-9.6,7.8-15C174.3,62.1,140.9,46.6,101.4,46.6z"/>
</g>
</svg>
