<?xml version="1.0" encoding="utf-8"?>
<!-- Generator: Adobe Illustrator 26.5.0, SVG Export Plug-In . SVG Version: 6.00 Build 0)  -->
<svg version="1.1" id="Layer_1" xmlns="http://www.w3.org/2000/svg" xmlns:xlink="http://www.w3.org/1999/xlink" x="0px" y="0px"
	 viewBox="0 0 100 100" style="enable-background:new 0 0 100 100;" xml:space="preserve">
<style type="text/css">
	.st0{fill:#666666;}
</style>
<path class="st0" d="M66,94.9c-1.5-0.1-5.3-1.4-6.7-2.2c-1.4-0.9-2.8-1.7-2.8-1.7s0.2-0.5-1.2-1.9s0-3.8,0-3.8
	c1.1-1.9,0.6-3.5-0.6-5.4c-1.1-1.9,0.6-3.3,1.3-4c0.7-0.7,3.5-2.5,6.5-6.4c3.1-3.9,4.9-11.3,3.5-19.1c-1.4-7.8-3.5-14.6-3.2-27
	C63,11,68.2,3.2,68.2,3.2H31.8c0,0,5.1,7.8,5.4,20.2c0.3,12.4-1.8,19.2-3.2,27c-1.4,7.8,0.4,15.2,3.5,19.1c3.1,3.9,5.8,5.7,6.5,6.4
	c0.7,0.7,2.4,2.1,1.3,4c-1.1,1.9-1.6,3.5-0.6,5.4c0,0,1.5,2.4,0,3.8c-1.5,1.4-1.2,1.9-1.2,1.9s-1.4,0.9-2.8,1.7
	c-1.4,0.9-5.2,2.1-6.7,2.2c-1.5,0.1-1.2,1.9,0.1,1.9c0.9,0,30.9,0,31.9,0C67.2,96.8,67.5,95,66,94.9z"/>
</svg>
