<?xml version="1.0" encoding="utf-8"?>
<!-- Generator: Adobe Illustrator 26.5.0, SVG Export Plug-In . SVG Version: 6.00 Build 0)  -->
<svg version="1.1" id="Layer_1" xmlns="http://www.w3.org/2000/svg" xmlns:xlink="http://www.w3.org/1999/xlink" x="0px" y="0px"
	 viewBox="0 0 100 100" style="enable-background:new 0 0 100 100;" xml:space="preserve">
<style type="text/css">
	.st0{fill:#666666;}
</style>
<path class="st0" d="M81.3,20.1c-1.4-4.5-5.9-6.6-8.3-6.7c-2.2-0.1-7.2,1.4-8.8,1.3c-0.6-0.1-0.9-0.4-1.2-0.9V5.3
	c0-0.8-0.7-1.5-1.5-1.5H18.3c-0.8,0-1.5,0.7-1.5,1.5v53.8c0,6.2,4.3,7.3,6.9,9.5c2.6,2.2,5.8,5.2,5.2,10.8
	c-0.6,5.6-4.3,9.7-7.1,11.4c-2.8,1.7-3.7,1.5-4.5,2.2c-0.9,0.6-1.7,3.2,1.7,3.2c2.6,0,39.3,0,41.9,0c3.4,0,2.6-2.6,1.7-3.2
	c-0.9-0.6-1.7-0.4-4.5-2.2c-2.8-1.7-6.5-5.8-7.1-11.4c-0.6-5.6,2.6-8.6,5.2-10.8c1.6-1.3,3.7-2.2,5.2-4.1
	c4.8-3.9,14.7-12.6,17.4-14.8c3.3-2.9,4.3-6,4.7-13.6C83.8,28.9,82.7,24.6,81.3,20.1z M78,43.5c-1.4,3.5-6.6,6.8-10.5,8.9
	c-1.8,1-3.5,0.9-4.4,0.7V27.5c0.9-1.1,1.5-2.6,1.8-4.5c0,0,5.2-6.9,10.2-3C78.6,22.7,81,35.8,78,43.5z"/>
</svg>
