<?xml version="1.0" encoding="utf-8"?>
<!-- Generator: Adobe Illustrator 26.5.0, SVG Export Plug-In . SVG Version: 6.00 Build 0)  -->
<svg version="1.1" id="Layer_1" xmlns="http://www.w3.org/2000/svg" xmlns:xlink="http://www.w3.org/1999/xlink" x="0px" y="0px"
	 viewBox="0 0 100 100" style="enable-background:new 0 0 100 100;" xml:space="preserve">
<style type="text/css">
	.st0{fill:#666666;}
</style>
<path class="st0" d="M71.3,19.3v-1.8c0-0.6,0.3-1.1,0.8-1.3c0.6-0.3,1.4-0.7,1.4-1.7c0-0.9-0.5-1.5-0.9-1.7
	c-0.5-0.2-0.8-0.8-0.8-1.3v-1.1c0-0.5,1.3-0.7,1.3-1.6c0-0.9-1.3-1.2-1.3-1.6V6.8c0-1.4-1.1-2.5-2.5-2.5H30.7
	c-1.4,0-2.5,1.1-2.5,2.5V9c0,0.6-1.2,0.8-1.2,1.6c0,0.8,1,0.9,1,1.6c-0.1,0.3-0.4,0.5-0.7,0.7c-0.4,0.2-0.9,0.8-0.9,1.7
	c0,1,0.8,1.4,1.4,1.7c0.5,0.2,0.8,0.8,0.8,1.3v1.8c0,3.5-8.2,5.4-8.2,14.4v50.3c0,6.5,5.2,11.7,11.7,11.7h35.6
	c6.5,0,11.7-5.2,11.7-11.7V33.7C79.5,24.7,71.3,22.8,71.3,19.3z"/>
</svg>
