<?xml version="1.0" encoding="utf-8"?>
<!-- Generator: Adobe Illustrator 26.5.0, SVG Export Plug-In . SVG Version: 6.00 Build 0)  -->
<svg version="1.1" id="Layer_1" xmlns="http://www.w3.org/2000/svg" xmlns:xlink="http://www.w3.org/1999/xlink" x="0px" y="0px"
	 viewBox="0 0 138 200" style="enable-background:new 0 0 138 200;" xml:space="preserve">
<style type="text/css">
	.st0{fill:#FFFFFF;}
	.st1{fill:#FFE500;}
	.st2{fill:#2F2F2F;}
</style>
<g>
	<path class="st0" d="M115.3,28.1c-12-6.3-28.2-9.7-45.3-9.7c-0.1,0-0.2,0-0.3,0c-0.8-0.9-1.6-1.8-2.4-2.6C59.1,7.6,48.2,3,36.6,3
		C24.9,3,14,7.6,5.8,15.8l-2.1,2.1c-3.6,3.6-3.6,9.4,0,13l7.4,7.4C5.9,44,3.1,50.6,3.1,57.5c0,7.7,3.4,15,9.8,21L51.3,117v21.4
		c-6.9,1.6-13,4.1-17.9,7.3c-8.3,5.5-12.9,13-12.9,21.1c0,5.4,2.2,15.7,16.6,23.3c8.8,4.6,20.3,7.1,32.6,7.1s23.8-2.5,32.6-7.1
		c14.4-7.6,16.6-17.9,16.6-23.3c0-8.2-4.6-15.7-12.9-21.2c-4.9-3.2-11-5.7-17.9-7.3v-20.6l38.5-38.5c6.9-6.2,10.6-13.7,10.6-21.8
		C137.1,45.8,129.4,35.4,115.3,28.1z"/>
	<path class="st1" d="M43.2,49l15.5,15.5c9.1-11.2,8.5-27.7-1.9-38.2c-10.5-10.4-27-11-38.2-1.9l11,11c0.1,0.1,0.2,0.2,0.3,0.4
		c2.7-1.4,5.7-2.6,9-3.6c1.5-0.5,3.1,0.4,3.6,1.9c0.5,1.5-0.4,3.1-1.9,3.6l0,0v10.5C41.6,48.1,42.5,48.4,43.2,49z"/>
	<path class="st2" d="M118.1,74.2c6.1-4.7,9.6-10.5,9.6-16.7c0.1-16.8-25.2-29.9-57.6-29.9c-1.2,0-2.4,0-3.6,0.1
		c-0.4,0-0.8,0.1-1.1,0.3c-1.3-2-2.8-3.9-4.6-5.6c-13.4-13.4-35.1-13.4-48.5,0l-2.1,2.1l14.5,14.5c-8,5.2-12.5,11.7-12.5,18.7
		c0,6.6,3.9,12.6,10.7,17.5l38,38v33.5c-18.2,2.1-30.9,10.4-30.9,20.3c0,11.7,17.4,20.9,39.6,20.9c22.2,0,39.6-9.2,39.6-20.9
		c0-10-12.6-18.3-30.9-20.4v-32.6L118.1,74.2z M70.2,33.4c28.2,0,52,11,52,24.1c-0.1,3.8-2.1,7.4-5.6,10.6c-0.2-0.2-0.4-0.5-0.6-0.6
		C105.3,60.2,89,56,71.3,56c-0.6,0-1.1,0-1.7,0c2.1-7.4,1.7-15.4-1.3-22.6C68.9,33.4,69.5,33.4,70.2,33.4z M67.2,61.9
		c1.4-0.1,2.6-0.1,4-0.1c15.9,0,30.9,3.7,40.5,9.9c-9.6,6-24.8,9.9-41.6,9.9c-16.1,0-30.7-3.6-40.3-9.1c5.2-3.7,12.3-6.6,20.3-8.4
		l8.7,8.8l2.1-2.1C63.5,68.1,65.7,65.1,67.2,61.9z M40.7,37.8c1.5-0.5,2.4-2.1,1.9-3.6c-0.5-1.5-2.1-2.4-3.6-1.9
		c-3.3,1.1-6.3,2.3-9,3.6c-0.1-0.1-0.2-0.3-0.3-0.4L18.6,24.5c11.2-9.2,27.7-8.6,38.2,1.9c10.4,10.4,11,27,1.9,38.2L43.2,49
		c-1.1-1.1-2.9-1.1-4.1,0c-1.1,1.1-1.1,2.9,0,4.1l6.2,6.2c-7.8,2.1-14.5,5.2-19.7,9c-0.3,0.2-0.6,0.5-0.8,0.9
		c-4.3-3.5-6.8-7.5-6.8-11.6C18.1,49.9,26.8,42.3,40.7,37.8z M104.4,166.9c0,8.7-15.9,16.1-34.8,16.1c-18.9,0-34.8-7.4-34.8-16.1
		c0-7.1,11.1-13.7,26.1-15.5v12.3c0,3.2,3.7,5.5,8.7,5.5c5.1,0,8.7-2.3,8.7-5.5v-12.3C93.4,153.2,104.4,159.8,104.4,166.9z
		 M65.7,163.4v-46.8c1.4,0.6,2.8,0.9,4.4,0.9c1.2,0,2.4-0.2,3.5-0.6v46.5c-0.4,0.3-1.7,1-3.9,1C67.4,164.4,66.1,163.8,65.7,163.4z
		 M74.8,110.7c-1.3,1.3-3,2-4.7,2c-1.8,0-3.5-0.7-4.7-2L36.7,82.1c9.3,3.3,20.8,5.3,33.2,5.3c12.6,0,24.2-2,33.6-5.4L74.8,110.7z"/>
</g>
</svg>
