<?xml version="1.0" encoding="utf-8"?>
<!-- Generator: Adobe Illustrator 26.5.0, SVG Export Plug-In . SVG Version: 6.00 Build 0)  -->
<svg version="1.1" id="Layer_1" xmlns="http://www.w3.org/2000/svg" xmlns:xlink="http://www.w3.org/1999/xlink" x="0px" y="0px"
	 viewBox="0 0 138 200" style="enable-background:new 0 0 138 200;" xml:space="preserve">
<style type="text/css">
	.st0{fill:#FFE500;}
	.st1{fill:#2F2F2F;}
	.st2{fill:#FFFFFF;}
</style>
<g>
	<path class="st0" d="M40.4,43.4l17.2,17.2c10.1-12.4,9.4-30.8-2.1-42.4C43.9,6.7,25.5,6,13.1,16.2l12.3,12.3
		c0.2,0.2,0.2,0.2,0.3,0.4c3-1.5,6.3-2.8,10-4c1.7-0.6,3.5,0.4,4,2.1c0.6,1.7-0.4,3.5-2.1,4l0,0v11.7C38.6,42.4,39.7,42.7,40.4,43.4
		z"/>
	<path class="st1" d="M123.5,71.4c6.7-5.3,10.6-11.6,10.6-18.5c0.2-18.7-28-33.2-63.9-33.2c-1.3,0-2.7,0-4,0.1
		c-0.5,0-0.9,0.1-1.3,0.3c-1.4-2.2-3.1-4.3-5.1-6.2C45.1-1.1,21-1.1,6.1,13.8l-2.3,2.3l16.1,16.1C11,37.9,6,45.1,6,52.9
		c0,7.3,4.4,14,11.8,19.4l42.2,42.2v37.2c-20.2,2.3-34.2,11.5-34.2,22.6c0,13,19.3,23.1,43.9,23.1c24.6,0,43.9-10.2,43.9-23.1
		c0-11.1-14-20.3-34.2-22.6v-36.2L123.5,71.4z M70.3,26.1c31.2,0,57.7,12.3,57.7,26.7c-0.1,4.2-2.3,8.2-6.2,11.8
		c-0.2-0.2-0.5-0.6-0.7-0.7c-11.7-8.1-29.7-12.7-49.4-12.7c-0.6,0-1.3,0-1.9,0c2.4-8.2,1.9-17.1-1.4-25.1
		C69,26.1,69.6,26.1,70.3,26.1z M67.1,57.7c1.5-0.1,2.9-0.1,4.4-0.1c17.6,0,34.3,4.1,44.9,11c-10.6,6.6-27.5,11-46.2,11
		c-17.9,0-34.1-4-44.8-10.1c5.8-4.1,13.6-7.3,22.5-9.3l9.6,9.7l2.3-2.3C63,64.6,65.4,61.2,67.1,57.7z M37.7,31
		c1.7-0.6,2.6-2.4,2.1-4s-2.4-2.6-4-2.1c-3.6,1.2-7,2.5-10,4c-0.1-0.2-0.2-0.3-0.3-0.4L13.1,16.2C25.5,6,43.9,6.7,55.5,18.3
		c11.5,11.5,12.3,30,2.1,42.4L40.4,43.4c-1.3-1.3-3.2-1.3-4.5,0c-1.3,1.3-1.3,3.2,0,4.5l6.9,6.9c-8.6,2.4-16.1,5.8-21.8,10
		c-0.3,0.2-0.6,0.6-0.9,0.9c-4.8-3.9-7.5-8.3-7.5-12.9C12.6,44.4,22.3,36,37.7,31z M108.4,174.2c0,9.7-17.7,17.8-38.6,17.8
		c-20.9,0-38.6-8.2-38.6-17.8c0-7.9,12.3-15.2,28.9-17.2v13.7c0,3.6,4.1,6.2,9.7,6.2c5.6,0,9.7-2.6,9.7-6.2V157
		C96.1,159.1,108.4,166.3,108.4,174.2z M65.4,170.4v-52c1.5,0.6,3.2,0.9,4.8,0.9c1.3,0,2.7-0.2,3.9-0.6v51.6
		c-0.4,0.4-1.9,1.1-4.4,1.1C67.3,171.5,65.8,170.8,65.4,170.4z M75.5,111.9c-1.4,1.4-3.3,2.2-5.3,2.2c-2,0-3.9-0.8-5.3-2.2
		L33.3,80.1c10.4,3.7,23,5.9,36.9,5.9c14,0,26.9-2.2,37.3-6L75.5,111.9z"/>
	<path class="st2" d="M116.5,68.6c-10.6-7-27.3-11-44.9-11c-1.5,0-3,0-4.4,0.1c-1.8,3.6-4.2,7-7.1,9.9l-2.3,2.3L48,60.1
		c-8.9,2.1-16.8,5.2-22.5,9.3c10.7,6.1,27,10.1,44.8,10.1C88.9,79.6,105.9,75.2,116.5,68.6z M75.5,111.9c-1.4,1.4-3.3,2.2-5.3,2.2
		c-2,0-3.9-0.8-5.3-2.2L33.3,80.1c10.4,3.7,23,5.9,36.9,5.9c14,0,26.9-2.2,37.3-6L75.5,111.9z"/>
</g>
</svg>
