<?xml version="1.0" encoding="utf-8"?>
<!-- Generator: Adobe Illustrator 26.5.0, SVG Export Plug-In . SVG Version: 6.00 Build 0)  -->
<svg version="1.1" id="Layer_1" xmlns="http://www.w3.org/2000/svg" xmlns:xlink="http://www.w3.org/1999/xlink" x="0px" y="0px"
	 viewBox="0 0 100 100" style="enable-background:new 0 0 100 100;" xml:space="preserve">
<style type="text/css">
	.st0{fill:#666666;}
</style>
<path class="st0" d="M86.1,4H13.9c0,0-1.4,3.8-0.3,9.4c1,5.3,3.8,9.7,7.4,13.4c3.3,3.4,6.9,5.8,12.1,7.5c4.4,1.5,9.6,2.3,10.3,3.8
	c0.7,1.5,2.5,4.1,2.6,6.4c0.1,2.3,0.6,14,0.6,18c0,3.9,0.5,20.1-0.1,21.3c-0.6,1.2-1.2,1.2-1.5,2.5c-0.1,0.6-0.2,1.6-2.1,2.3
	C41,89.4,30.9,92.2,29,92.8c-1.8,0.6-2,3.2,0.2,3.2c1.9,0,39.6,0,41.5,0c2.2,0,2.1-2.6,0.2-3.2S59,89.4,57.2,88.6
	c-1.8-0.7-2-1.7-2.1-2.3c-0.2-1.3-0.9-1.2-1.5-2.5c-0.6-1.2-0.1-17.4-0.1-21.3c0-3.9,0.5-15.6,0.6-18c0.1-2.3,1.8-4.9,2.6-6.4
	c0.7-1.5,6-2.4,10.3-3.8c5.2-1.7,8.7-4.1,12.1-7.5c3.6-3.7,6.3-8.1,7.4-13.4C87.6,7.8,86.1,4,86.1,4z"/>
</svg>
