<?xml version="1.0" encoding="utf-8"?>
<!-- Generator: Adobe Illustrator 26.5.0, SVG Export Plug-In . SVG Version: 6.00 Build 0)  -->
<svg version="1.1" id="Layer_1" xmlns="http://www.w3.org/2000/svg" xmlns:xlink="http://www.w3.org/1999/xlink" x="0px" y="0px"
	 viewBox="0 0 100 100" style="enable-background:new 0 0 100 100;" xml:space="preserve">
<style type="text/css">
	.st0{fill:#666666;}
</style>
<path class="st0" d="M84.4,2.9H15.6c0,0-1.5,7.9,4.3,12.2c5.8,4.3,13.1,2.2,13.7,9c0.4,4.7,2,12.1,4.3,16.1c2,3.4,4.6,5.2,5.7,6.6
	c1.2,1.5,2.4,4.3,2.4,7.2c0,3,0.7,27.7,0.7,27.7s0.2,1.8-0.9,2.7c-1.1,1-1.1,1.6-1.1,2.2c0,0.5,0.1,1.8-1.1,2.3
	c-1.2,0.5-14.5,4.9-15.9,5.2c-2.3,0.5-2.4,2.9,0.1,2.9c2,0,42.4,0,44.4,0c2.5,0,2.4-2.4,0.1-2.9C71,93.9,57.7,89.6,56.4,89
	c-1.2-0.5-1.1-1.8-1.1-2.3c0-0.5,0-1.2-1.1-2.2c-1.1-1-0.9-2.7-0.9-2.7S53.9,57,53.9,54c0-3,1.2-5.7,2.4-7.2
	c1.1-1.4,3.7-3.2,5.7-6.6c2.4-3.9,3.9-11.4,4.3-16.1c0.6-6.8,7.9-4.7,13.7-9S84.4,2.9,84.4,2.9z"/>
</svg>
