<?xml version="1.0" encoding="utf-8"?>
<!-- Generator: Adobe Illustrator 26.5.0, SVG Export Plug-In . SVG Version: 6.00 Build 0)  -->
<svg version="1.1" id="Layer_1" xmlns="http://www.w3.org/2000/svg" xmlns:xlink="http://www.w3.org/1999/xlink" x="0px" y="0px"
	 viewBox="0 0 100 100" style="enable-background:new 0 0 100 100;" xml:space="preserve">
<style type="text/css">
	.st0{fill:#666666;}
</style>
<path class="st0" d="M65.2,92.7c-4.4-1.1-9.7-3.1-11.3-6.6S52,72.9,52,63.5c0-9.4,0.9-19,2.6-23.3c1.7-4.3,9.2-13.9,12.4-18.3
	c3.3-4.4,14.5-18.6,14.5-18.6h-63c0,0,11.2,14.2,14.5,18.6c3.3,4.4,10.7,14,12.4,18.3c1.7,4.3,2.6,13.9,2.6,23.3
	c0,9.4-0.3,19.2-1.9,22.6c-1.6,3.4-6.9,5.4-11.3,6.6c-4.4,1.1-4.6,1-4.6,2.7c0,1.7,4,1.3,6.9,1.3c2.7,0,23.1,0,25.8,0
	c2.9,0,6.9,0.4,6.9-1.3C69.8,93.7,69.6,93.8,65.2,92.7z"/>
</svg>
