<?xml version="1.0" encoding="utf-8"?>
<!-- Generator: Adobe Illustrator 26.5.0, SVG Export Plug-In . SVG Version: 6.00 Build 0)  -->
<svg version="1.1" id="Layer_1" xmlns="http://www.w3.org/2000/svg" xmlns:xlink="http://www.w3.org/1999/xlink" x="0px" y="0px"
	 viewBox="0 0 100 100" style="enable-background:new 0 0 100 100;" xml:space="preserve">
<style type="text/css">
	.st0{fill:#666666;}
</style>
<path class="st0" d="M63.1,34.8c2.8-3,4.8-6.8,6.8-13.3c2-6.5,2.5-17.6,2.5-17.6H27.6c0,0,0.5,11.2,2.5,17.6c2,6.5,4,10.3,6.8,13.3
	c2.8,3,7.7,6.8,8.8,10.3c1.2,3.5,2.5,8.5,2,20.5c-0.5,12-0.7,15-1.5,18c-0.8,3-1.8,5.3-5.2,6.7c-3.3,1.3-6.5,3-8.4,3.2
	c-1.8,0.2-2.3,2.8,0.7,2.8c2.7,0,30.4,0,33.1,0c3,0,2.6-2.7,0.7-2.8c-1.8-0.2-5-1.8-8.4-3.2c-3.3-1.3-4.3-3.7-5.2-6.7
	c-0.8-3-1-6-1.5-18c-0.5-12,0.8-17,2-20.5C55.4,41.6,60.3,37.8,63.1,34.8z"/>
</svg>
