<?xml version="1.0" encoding="utf-8"?>
<!-- Generator: Adobe Illustrator 26.5.0, SVG Export Plug-In . SVG Version: 6.00 Build 0)  -->
<svg version="1.1" id="Layer_1" xmlns="http://www.w3.org/2000/svg" xmlns:xlink="http://www.w3.org/1999/xlink" x="0px" y="0px"
	 viewBox="0 0 100 100" style="enable-background:new 0 0 100 100;" xml:space="preserve">
<style type="text/css">
	.st0{fill:#666666;}
</style>
<path class="st0" d="M69.7,92.3c-2.3-1.6-8.9-4.8-10-5.7c-1.1-0.8-0.2-1.9-0.1-3.2c0.1-1.6-1.1-2.5-0.3-3.6c0.5-0.6,2.4-2.1,4.1-4.5
	c1.7-2.4,2-7.9,2-14.6s0.5-24.9,1.6-33.3c0.8-6.3,2.4-13.6,3.3-16.7c0.3-1.1,0.4-2.2,0.2-3.3l-0.3-1.9c-0.2-1-1.1-1.8-2.1-1.8H32
	c-1.1,0-2,0.8-2.1,1.8l-0.3,1.9c-0.2,1.1-0.1,2.2,0.2,3.3c0.9,3.1,2.4,10.3,3.3,16.7c1.1,8.4,1.6,26.7,1.6,33.3s0.4,12.1,2,14.6
	c1.7,2.4,3.6,3.9,4.1,4.5c0.8,1.1-0.4,2-0.3,3.6c0.1,1.3,1,2.3-0.1,3.2c-1.1,0.8-7.7,4.1-10,5.7c-2.8,1.9-1.7,3.8,0.5,3.8
	c1.8,0,36.8,0,38.5,0C71.4,96.2,72.5,94.2,69.7,92.3z"/>
</svg>
