<?xml version="1.0" encoding="utf-8"?>
<!-- Generator: Adobe Illustrator 26.5.0, SVG Export Plug-In . SVG Version: 6.00 Build 0)  -->
<svg version="1.1" id="Layer_1" xmlns="http://www.w3.org/2000/svg" xmlns:xlink="http://www.w3.org/1999/xlink" x="0px" y="0px"
	 viewBox="0 0 100 100" style="enable-background:new 0 0 100 100;" xml:space="preserve">
<style type="text/css">
	.st0{fill:#666666;}
</style>
<path class="st0" d="M76.8,22.8c-0.7-3.6-0.9-7.4-0.6-11.1L76.6,6c0.1-1-0.7-1.8-1.7-1.8H25.1c-1,0-1.8,0.8-1.7,1.8l0.4,5.7
	c0.3,3.7,0.1,7.4-0.6,11.1c-0.4,1.8-0.5,4.2-0.5,6.7c0.1,3.2,0.6,6.1,1.4,8c1.3,3.5,2,7.1,2.3,10.8l3.1,44c0.1,2,1.8,3.6,3.9,3.6
	h33.4c2,0,3.7-1.6,3.9-3.6l3.1-44c0.3-3.7,0.9-7.3,2.3-10.8c0.7-1.9,1.3-4.8,1.4-8C77.3,26.9,77.2,24.6,76.8,22.8z"/>
</svg>
