<?xml version="1.0" encoding="utf-8"?>
<!-- Generator: Adobe Illustrator 26.5.0, SVG Export Plug-In . SVG Version: 6.00 Build 0)  -->
<svg version="1.1" id="Layer_1" xmlns="http://www.w3.org/2000/svg" xmlns:xlink="http://www.w3.org/1999/xlink" x="0px" y="0px"
	 viewBox="0 0 100 100" style="enable-background:new 0 0 100 100;" xml:space="preserve">
<style type="text/css">
	.st0{fill:#666666;}
</style>
<path class="st0" d="M87.8,28.2c-1-3.6-4.5-5.9-8.4-6.6c-3.9-0.7-4.6-1.4-4.6-3.4c0.2-1.2,0.3-2.2,0.4-3c0.2-1.2-0.7-2.3-1.9-2.3
	l-10.7-0.6c-5.6-0.3-16.5-1.2-24.1-3.9C33.3,6.5,30.8,3.4,25,3.4c-11.5,0-15.4,2.9-12.2,5.5c2,1.7,3.1,2.7,4.4,7.9
	c1.3,5.2,8,66.5,8.1,69.3c0.1,2.1-0.3,5.7-0.6,8.1c-0.1,1.2,0.8,2.3,2.1,2.3h37.5c1.2,0,2.2-1.1,2.1-2.3c-0.3-2.4-0.7-6-0.6-8.1
	c0-0.5,0.3-2.8,0.7-6.3c2.6-5.5,14.1-6.3,17.8-9.4c3.3-2.7,3.7-6.6,3.7-6.6S88.6,30.8,87.8,28.2z M81.1,61.7c0,1.5-0.9,2.8-2.3,3.4
	l-8.6,3.4c-0.9,0.4-1.9-0.2-2-1.2c1.5-11.1,3.4-25.1,4.9-36.1c1-2.4,3.9-3.5,6.2-2.2l0.3,0.2c1,0.4,1.7,1.5,1.7,2.6L81.1,61.7z"/>
</svg>
