<?xml version="1.0" encoding="utf-8"?>
<!-- Generator: Adobe Illustrator 26.5.0, SVG Export Plug-In . SVG Version: 6.00 Build 0)  -->
<svg version="1.1" id="Layer_1" xmlns="http://www.w3.org/2000/svg" xmlns:xlink="http://www.w3.org/1999/xlink" x="0px" y="0px"
	 viewBox="0 0 100 100" style="enable-background:new 0 0 100 100;" xml:space="preserve">
<style type="text/css">
	.st0{fill:#666666;}
</style>
<path class="st0" d="M64.2,94.3c-1-0.3-6.5-1.2-7.5-1.5c-1-0.3-2.7-1.6-3.3-2.6c-0.6-1-0.9-2.1-0.9-4.4c0-2.3,0.6-20.8,0.8-24.2
	c0.2-3.4,2.8-3.6,4.7-7.4c1.9-3.7,1.8-7.5,1-12.5s-1-13.5,0.2-20.4c1-5.5,5-13.5,6.6-16.5c0.3-0.6-0.1-1.2-0.7-1.2H34.9
	c-0.6,0-1,0.7-0.7,1.2c1.6,3,5.6,11.1,6.6,16.5c1.2,6.9,1,15.3,0.2,20.4s-0.9,8.8,1,12.5c1.9,3.7,4.5,3.9,4.7,7.4
	c0.2,3.4,0.8,21.9,0.8,24.2c0,2.3-0.3,3.4-0.9,4.4c-0.6,1-2.3,2.3-3.3,2.6c-1,0.3-6.5,1.2-7.5,1.5c-1,0.3-0.9,2.2,0.5,2.2
	c1.1,0,26.4,0,27.5,0C65.2,96.5,65.2,94.6,64.2,94.3z"/>
</svg>
