<?xml version="1.0" encoding="utf-8"?>
<!-- Generator: Adobe Illustrator 26.5.0, SVG Export Plug-In . SVG Version: 6.00 Build 0)  -->
<svg version="1.1" id="Layer_1" xmlns="http://www.w3.org/2000/svg" xmlns:xlink="http://www.w3.org/1999/xlink" x="0px" y="0px"
	 viewBox="0 0 100 100" style="enable-background:new 0 0 100 100;" xml:space="preserve">
<style type="text/css">
	.st0{fill:#666666;}
</style>
<path class="st0" d="M71,33.3c6-10.9,18.5-27.6,21-27.6c2.5,0,3.7,2.5,3.7,3.3c0,0.9-15.1,17.3-18.1,24.3H71z M89,62.2
	c0,11-6.7,22.7-28.5,30.2l-1.3,1.2c-0.5,0.5-1.1,0.7-1.8,0.7H35.9c-0.7,0-1.3-0.3-1.8-0.7l-1.3-1.2C11.1,85,4.4,73.2,4.4,62.2
	c0-8.1,5.9-22.4,7.8-26.8c0.4-0.8,1.1-1.3,2-1.3h64.9c0.9,0,1.7,0.5,2,1.3C83.1,39.8,89,54.2,89,62.2z M76,35.9L69.9,36
	c0,0-6.6,11.1-11.9,32.9c-0.3,1.4-1.8,2.2-3.2,1.7C46,67.6,35.6,64,35.6,64s-3.7,16.8,6.9,20.5c14.8,5.2,18.7-5.5,20.2-12.4
	C68.1,47.6,76,35.9,76,35.9z"/>
</svg>
