<?xml version="1.0" encoding="utf-8"?>
<!-- Generator: Adobe Illustrator 26.5.0, SVG Export Plug-In . SVG Version: 6.00 Build 0)  -->
<svg version="1.1" id="Layer_1" xmlns="http://www.w3.org/2000/svg" xmlns:xlink="http://www.w3.org/1999/xlink" x="0px" y="0px"
	 viewBox="0 0 100 100" style="enable-background:new 0 0 100 100;" xml:space="preserve">
<style type="text/css">
	.st0{opacity:0.5;fill:#727272;}
</style>
<path class="st0" d="M73.8,93.1L60,89.3c-4.2-1.2-7.1-5-7.1-9.3V55.3c0-3.8,2.3-7.2,5.8-8.9c5.8-2.7,11.3-8.1,15.9-16.3l9.7-26.7
	H15.6l9.7,26.7c4.5,8.2,10.1,13.6,15.9,16.3c3.5,1.6,5.8,5,5.8,8.8v22.3c0,6.8-2.9,10.6-7.1,11.7l-13.8,3.8c-2,0.6-1.6,3.5,0.5,3.5
	h46.7C75.4,96.6,75.8,93.7,73.8,93.1z"/>
</svg>
