<?xml version="1.0" encoding="utf-8"?>
<!-- Generator: Adobe Illustrator 26.5.0, SVG Export Plug-In . SVG Version: 6.00 Build 0)  -->
<svg version="1.1" id="Layer_1" xmlns="http://www.w3.org/2000/svg" xmlns:xlink="http://www.w3.org/1999/xlink" x="0px" y="0px"
	 viewBox="0 0 100 100" style="enable-background:new 0 0 100 100;" xml:space="preserve">
<style type="text/css">
	.st0{fill:#666666;}
</style>
<path class="st0" d="M76.3,3.1H23.7c-0.8,0-1.2,0.9-0.8,1.5c1.1,1.7,2.8,4.5,3.4,7.8c1,5.1,2.6,12.5,4.2,15.7
	C32,31.3,36.6,39,44.1,40.6c0.3,2.4,2.1,2.7,2.1,2.7S48,51.8,48,64.9c0,13.1-0.3,18.7-0.3,18.7s-1.1,2.6-2.9,4
	c-1.8,1.4-0.5,2.9-0.5,2.9s-1.6-0.5-2.9,0.8c-4,1.4-15,3.3-15,3.3v2.3h47.3v-2.3c0,0-11-1.8-15-3.3c-1.3-1.3-2.9-0.8-2.9-0.8
	s1.3-1.4-0.5-2.9c-1.8-1.4-2.9-4-2.9-4S52,78,52,64.9c0-13.1,1.8-21.6,1.8-21.6s1.8-0.3,2.1-2.7C63.4,39,68,31.3,69.6,28.1
	c1.6-3.2,3.2-10.6,4.2-15.7c0.6-3.2,2.2-6.1,3.4-7.8C77.6,4,77.1,3.1,76.3,3.1z"/>
</svg>
