<?xml version="1.0" encoding="utf-8"?>
<!-- Generator: Adobe Illustrator 26.5.0, SVG Export Plug-In . SVG Version: 6.00 Build 0)  -->
<svg version="1.1" id="Layer_1" xmlns="http://www.w3.org/2000/svg" xmlns:xlink="http://www.w3.org/1999/xlink" x="0px" y="0px"
	 viewBox="0 0 100 100" style="enable-background:new 0 0 100 100;" xml:space="preserve">
<style type="text/css">
	.st0{fill:#666666;}
</style>
<path class="st0" d="M65.9,93.9c-2.4-0.6-9.9-2.1-9.9-2.1s0.1-0.8-0.3-1.8c-0.4-1-2.5-1.2-2.5-5.1S53,57.6,53,55.7
	c0-1.9,1.7-1.5,1.7-3.6c7.9-5.5,13.6-16.4,13.6-28.1c0-11.7-3-20.2-3-20.2H34.6c0,0-3,8.5-3,20.2c0,11.7,5.7,22.5,13.6,28.1
	c0,2.1,1.7,1.7,1.7,3.6c0,1.9-0.1,25.3-0.1,29.2S44.8,89,44.3,90c-0.4,1-0.3,1.8-0.3,1.8s-7.5,1.6-9.9,2.1c-2.4,0.6-2,2.3-0.1,2.3
	c1.6,0,30.3,0,31.9,0C67.9,96.2,68.3,94.4,65.9,93.9z"/>
</svg>
