<?xml version="1.0" encoding="utf-8"?>
<!-- Generator: Adobe Illustrator 26.5.0, SVG Export Plug-In . SVG Version: 6.00 Build 0)  -->
<svg version="1.1" id="Layer_1" xmlns="http://www.w3.org/2000/svg" xmlns:xlink="http://www.w3.org/1999/xlink" x="0px" y="0px"
	 viewBox="0 0 100 100" style="enable-background:new 0 0 100 100;" xml:space="preserve">
<style type="text/css">
	.st0{fill:#666666;}
</style>
<path class="st0" d="M57.8,55.4c3-4.8,9.9-7,14.8-16c6.2-11.3,1.5-28.6-0.2-33.8C72.1,4.6,71.2,4,70.2,4H29.8c-1,0-1.9,0.6-2.2,1.6
	c-1.7,5.3-6.5,22.5-0.2,33.8c5,9,11.8,11.2,14.8,16c3.2,5.1,4.2,9.6,4.2,15.1s0.3,16.1-6,18.9c-4.8,2.1-9.1,3.6-10.9,4.1
	c-0.6,0.2-1,0.8-0.9,1.5c0.1,0.6,0.7,1,1.3,1h40.1c0.6,0,1.2-0.4,1.3-1c0.1-0.7-0.3-1.3-0.9-1.5c-1.8-0.6-6.1-2-10.9-4.1
	c-6.3-2.8-6-13.4-6-18.9S54.6,60.5,57.8,55.4z"/>
</svg>
